<svg width="180" height="180" viewBox="0 0 180 180" fill="none" xmlns="http://www.w3.org/2000/svg">
  <rect fill="#1a1a1a" width="180" height="180" rx="40"/>
  <path d="M90 25C65 25 50 40 50 60V85C50 110 65 130 90 155C115 130 130 110 130 85V60C130 40 115 25 90 25Z" fill="#3b82f6" opacity="0.15" stroke="#3b82f6" stroke-width="2"/>
  <g fill="#ffffff" transform="translate(90, 90)">
    <circle cx="32" cy="0" r="16" stroke="currentColor" stroke-width="2.5" fill="none"/>
    <circle cx="32" cy="0" r="6" fill="currentColor"/>
    <circle cx="-32" cy="0" r="16" stroke="currentColor" stroke-width="2.5" fill="none"/>
    <circle cx="-32" cy="0" r="6" fill="currentColor"/>
    <path d="M -22 0 L 8 -12 L 22 0" stroke="currentColor" stroke-width="3.5" stroke-linecap="round" stroke-linejoin="round" fill="none"/>
    <path d="M -22 0 L 8 12 L 22 0" stroke="currentColor" stroke-width="3.5" stroke-linecap="round" stroke-linejoin="round" fill="none"/>
    <path d="M 8 -12 L 8 12" stroke="currentColor" stroke-width="3.5" stroke-linecap="round"/>
    <path d="M 8 -12 L 18 -16" stroke="currentColor" stroke-width="2.5" stroke-linecap="round"/>
    <path d="M 18 -16 L 22 -14" stroke="currentColor" stroke-width="2.5" stroke-linecap="round"/>
    <path d="M -22 0 L -26 -6" stroke="currentColor" stroke-width="2.5" stroke-linecap="round"/>
    <ellipse cx="-26" cy="-6" rx="3" ry="2" fill="currentColor"/>
  </g>
  <path d="M90 35C72 35 60 47 60 65V80C60 98 72 115 90 125C108 115 120 98 120 80V65C120 47 108 35 90 35Z" stroke="#3b82f6" stroke-width="2.5" fill="none" opacity="0.7"/>
  <path d="M90 70 L92.5 77 L100 77 L93.75 81.5 L96.25 89 L90 85 L83.75 89 L86.25 81.5 L80 77 L87.5 77 Z" fill="#3b82f6" opacity="0.9"/>
</svg>

